# xmcd CD Database Entry
#
# Track frame offsets:
# 150
# 29035
# 42125
# 69595
# 90625
# 103755
# 115637
# 134100
# 148317
# 160345
# 173890
# 201802
# 219330
# 231340
# 245442
# 253207
# 272560
#
# Disc length: 3856 seconds
#
# Revision: 4
# Processed by: cddbd v1.4PL0 Copyright (c) Steve Scherf et al.
# Submitted via: tcd 2.0b
#
DISCID=050f0e11
DTITLE=Various Artist - Rough Trade Compilation 1
DYEAR=1900
DGENRE=
TTITLE0=30 Seconds Over Tokyo - Pere Ube
TTITLE1=Boredom - Buzzcocks
TTITLE2=Fisherman - The Congos
TTITLE3=Nag Nag Nag - Cabaret Voltaire
TTITLE4=T.V.O.D - The Normal
TTITLE5=Suspect Device - Stiff Little Fingers
TTITLE6=United - Throbing Gristle
TTITLE7=Ambition - Subway Sect
TTITLE8=Part The Punks - Television Personalities
TTITLE9=Fairytale In The Supermarket - The Raincoats
TTITLE10=Reality Asylum - Crass
TTITLE11=Transmission - Joy Division
TTITLE12=People Say - The Go-Betweens
TTITLE13=Let's Build A Car - Swell Maps
TTITLE14=Final Day - Young Marble Giants
TTITLE15=How I Wrote 'Elastic Man' - The Fall
TTITLE16=Mr Clarinet - The Birthday Party
EXTD=
EXTT0=
EXTT1=
EXTT2=
EXTT3=
EXTT4=
EXTT5=
EXTT6=
EXTT7=
EXTT8=
EXTT9=
EXTT10=
EXTT11=
EXTT12=
EXTT13=
EXTT14=
EXTT15=
EXTT16=
PLAYORDER=
